<?xml version="1.0" encoding="UTF-8" standalone="no"?>
<!-- Created with Inkscape (http://www.inkscape.org/) -->

<svg
   width="139.20518mm"
   height="68.272827mm"
   viewBox="0 0 139.20518 68.272827"
   version="1.1"
   id="svg1"
   xml:space="preserve"
   xmlns:xlink="http://www.w3.org/1999/xlink"
   xmlns="http://www.w3.org/2000/svg"
   xmlns:svg="http://www.w3.org/2000/svg"><defs
     id="defs1"><linearGradient
       id="linearGradient73"><stop
         style="stop-color:#ffc600;stop-opacity:0.99607843;"
         offset="0.19942197"
         id="stop72" /><stop
         style="stop-color:#ffde00;stop-opacity:0.99215686;"
         offset="1"
         id="stop73" /></linearGradient><linearGradient
       id="linearGradient6"><stop
         style="stop-color:#ffd42a;stop-opacity:1;"
         offset="0"
         id="stop6" /><stop
         style="stop-color:#c38606;stop-opacity:1;"
         offset="1"
         id="stop7" /></linearGradient><linearGradient
       id="linearGradient34"><stop
         style="stop-color:#ffd42a;stop-opacity:1;"
         offset="0"
         id="stop34" /><stop
         style="stop-color:#b97900;stop-opacity:1;"
         offset="1"
         id="stop35" /></linearGradient><rect
       x="318.31271"
       y="553.64642"
       width="224.45126"
       height="156.43573"
       id="rect32" /><linearGradient
       id="linearGradient18"><stop
         style="stop-color:#e0c619;stop-opacity:0.99607801;"
         offset="0"
         id="stop18" /><stop
         style="stop-color:#ffa800;stop-opacity:1;"
         offset="1"
         id="stop19" /></linearGradient><linearGradient
       id="linearGradient9"><stop
         style="stop-color:#ffde00;stop-opacity:0.99607843;"
         offset="0"
         id="stop9" /><stop
         style="stop-color:#ffc600;stop-opacity:1;"
         offset="1"
         id="stop10" /></linearGradient><linearGradient
       xlink:href="#linearGradient9"
       id="linearGradient10"
       x1="105.81551"
       y1="139.29199"
       x2="105.81551"
       y2="104.22499"
       gradientUnits="userSpaceOnUse"
       gradientTransform="translate(-42.755784,-4.0719795)" /><linearGradient
       xlink:href="#linearGradient18"
       id="linearGradient19"
       x1="105.77544"
       y1="70.21505"
       x2="105.77544"
       y2="102.74026"
       gradientUnits="userSpaceOnUse" /><linearGradient
       xlink:href="#linearGradient34"
       id="linearGradient35"
       x1="430.66309"
       y1="523.96448"
       x2="463.84811"
       y2="600.9704"
       gradientUnits="userSpaceOnUse" /><linearGradient
       xlink:href="#linearGradient18"
       id="linearGradient36"
       gradientUnits="userSpaceOnUse"
       x1="105.77544"
       y1="70.21505"
       x2="105.77544"
       y2="102.74026" /><linearGradient
       xlink:href="#linearGradient18"
       id="linearGradient37"
       gradientUnits="userSpaceOnUse"
       x1="105.77544"
       y1="70.21505"
       x2="105.77544"
       y2="102.74026" /><linearGradient
       xlink:href="#linearGradient18"
       id="linearGradient38"
       gradientUnits="userSpaceOnUse"
       x1="105.77544"
       y1="70.21505"
       x2="105.77544"
       y2="102.74026" /><linearGradient
       xlink:href="#linearGradient18"
       id="linearGradient39"
       gradientUnits="userSpaceOnUse"
       x1="105.77544"
       y1="70.21505"
       x2="105.77544"
       y2="102.74026" /><linearGradient
       xlink:href="#linearGradient18"
       id="linearGradient40"
       gradientUnits="userSpaceOnUse"
       x1="105.77544"
       y1="70.21505"
       x2="105.77544"
       y2="102.74026" /><linearGradient
       xlink:href="#linearGradient18"
       id="linearGradient41"
       gradientUnits="userSpaceOnUse"
       x1="105.77544"
       y1="70.21505"
       x2="105.77544"
       y2="102.74026" /><linearGradient
       xlink:href="#linearGradient73"
       id="linearGradient7"
       x1="12.314094"
       y1="2.2814848"
       x2="11.685903"
       y2="20.270521"
       gradientUnits="userSpaceOnUse" /><linearGradient
       xlink:href="#linearGradient6"
       id="linearGradient68"
       gradientUnits="userSpaceOnUse"
       x1="4.481997"
       y1="4.2744112"
       x2="21.522627"
       y2="23.763927" /><linearGradient
       xlink:href="#linearGradient6"
       id="linearGradient69"
       gradientUnits="userSpaceOnUse"
       x1="4.481997"
       y1="4.2744112"
       x2="21.522627"
       y2="23.763927" /><linearGradient
       xlink:href="#linearGradient6"
       id="linearGradient70"
       gradientUnits="userSpaceOnUse"
       x1="4.481997"
       y1="4.2744112"
       x2="21.522627"
       y2="23.763927" /><linearGradient
       xlink:href="#linearGradient6"
       id="linearGradient71"
       gradientUnits="userSpaceOnUse"
       x1="4.481997"
       y1="4.2744112"
       x2="21.522627"
       y2="23.763927" /><linearGradient
       xlink:href="#linearGradient6"
       id="linearGradient72"
       gradientUnits="userSpaceOnUse"
       x1="4.481997"
       y1="4.2744112"
       x2="21.522627"
       y2="23.763927" /><linearGradient
       xlink:href="#linearGradient73"
       id="linearGradient2"
       gradientUnits="userSpaceOnUse"
       x1="12.314094"
       y1="2.2814848"
       x2="11.685903"
       y2="20.270521" /><linearGradient
       xlink:href="#linearGradient73"
       id="linearGradient3"
       gradientUnits="userSpaceOnUse"
       x1="12.314094"
       y1="2.2814848"
       x2="11.685903"
       y2="20.270521" /><linearGradient
       xlink:href="#linearGradient73"
       id="linearGradient4"
       gradientUnits="userSpaceOnUse"
       x1="12.314094"
       y1="2.2814848"
       x2="11.685903"
       y2="20.270521" /><linearGradient
       xlink:href="#linearGradient73"
       id="linearGradient5"
       gradientUnits="userSpaceOnUse"
       x1="12.314094"
       y1="2.2814848"
       x2="11.685903"
       y2="20.270521" /><linearGradient
       xlink:href="#linearGradient73"
       id="linearGradient8"
       gradientUnits="userSpaceOnUse"
       x1="12.314094"
       y1="2.2814848"
       x2="11.685903"
       y2="20.270521" /></defs><g
     id="layer1"
     transform="translate(-45.526219,-73.197174)"><g
       id="g67"><text
         xml:space="preserve"
         transform="matrix(0.89965006,0,0,0.89965006,-201.93538,-403.51681)"
         id="text31"
         style="font-style:normal;font-variant:normal;font-weight:normal;font-stretch:normal;font-size:26.6667px;line-height:0.9;font-family:Gabriola;-inkscape-font-specification:'Gabriola, Normal';font-variant-ligatures:normal;font-variant-caps:normal;font-variant-numeric:normal;font-variant-east-asian:normal;text-align:start;writing-mode:lr-tb;direction:ltr;white-space:pre;shape-inside:url(#rect32);display:inline;fill:url(#linearGradient35);fill-rule:nonzero;stroke:none;stroke-width:1.93333;stroke-linecap:round;stroke-linejoin:round;stroke-dasharray:none;stroke-opacity:0.996078;paint-order:normal"
         x="100.39726"
         y="0"><tspan
           x="318.3125"
           y="573.42371"
           id="tspan2"><tspan
             style="font-family:Century;-inkscape-font-specification:'Century, Normal'"
             id="tspan1">SCRUM
</tspan></tspan><tspan
           x="318.3125"
           y="604.26053"
           id="tspan4"><tspan
             style="font-size:32px;font-family:Century;-inkscape-font-specification:'Century, Normal'"
             id="tspan3">ROYAL</tspan></tspan></text><rect
         style="fill:none;fill-opacity:0;fill-rule:nonzero;stroke:url(#linearGradient10);stroke-width:1.52204;stroke-linecap:butt;stroke-linejoin:round;stroke-dasharray:none;stroke-opacity:0.996078;paint-order:normal"
         id="rect6"
         width="33.54496"
         height="46.044952"
         x="46.287239"
         y="94.664032"
         ry="2.4780049" /><g
         id="g18"
         style="stroke:url(#linearGradient19)"
         transform="translate(-42.755784,-4.0719795)"><path
           style="fill:#bfa666;fill-opacity:0;fill-rule:nonzero;stroke:url(#linearGradient36);stroke-width:1.5279;stroke-linecap:round;stroke-linejoin:round;stroke-dasharray:none;stroke-opacity:0.996078;paint-order:normal"
           d="m 95.877945,94.872494 c 0,0 8.341795,-1.790039 19.739455,0.04971"
           id="path10" /><circle
           style="fill:#bfa666;fill-opacity:0;fill-rule:nonzero;stroke:url(#linearGradient37);stroke-width:1.54564;stroke-linecap:butt;stroke-linejoin:round;stroke-dasharray:none;stroke-opacity:0.996078;paint-order:normal"
           id="path11"
           cx="91.935921"
           cy="83.747849"
           r="1.6502603" /><circle
           style="fill:#bfa666;fill-opacity:0;fill-rule:nonzero;stroke:url(#linearGradient38);stroke-width:1.54564;stroke-linecap:butt;stroke-linejoin:round;stroke-dasharray:none;stroke-opacity:0.996078;paint-order:normal"
           id="path11-5"
           cx="105.79064"
           cy="79.69223"
           r="1.6502603" /><circle
           style="fill:#bfa666;fill-opacity:0;fill-rule:nonzero;stroke:url(#linearGradient39);stroke-width:1.54564;stroke-linecap:butt;stroke-linejoin:round;stroke-dasharray:none;stroke-opacity:0.996078;paint-order:normal"
           id="path11-5-1"
           cx="119.61497"
           cy="83.720024"
           r="1.6502603" /><path
           style="fill:#bfa666;fill-opacity:0;fill-rule:nonzero;stroke:url(#linearGradient40);stroke-width:1.51694;stroke-linecap:round;stroke-linejoin:round;stroke-dasharray:none;stroke-opacity:0.996078;paint-order:normal"
           d="m 115.73694,94.750024 3.12742,-9.428211 m -23.012807,9.398201 -2.96865,-9.0458"
           id="path12" /><path
           style="fill:#bfa666;fill-opacity:0;fill-rule:nonzero;stroke:url(#linearGradient41);stroke-width:1.51694;stroke-linecap:round;stroke-linejoin:round;stroke-dasharray:none;stroke-opacity:0.996078;paint-order:normal"
           d="m 92.669343,85.511567 c 0,0 5.249037,5.280848 7.953087,4.453726 2.70405,-0.827119 5.05816,-8.207581 5.05816,-8.207581 0,0 3.27889,8.879784 6.02819,8.311148 3.91427,-0.809586 6.74842,-4.363975 6.74842,-4.363975"
           id="path13" /></g></g><g
       id="g6"
       transform="matrix(1.2060818,0,0,1.2060818,49.341025,103.39037)"
       style="fill:url(#linearGradient7)"><g
         id="g1"
         style="fill:url(#linearGradient72)">
	<path
   d="M 12,21 H 8 C 5.243,21 3,18.757 3,16 v -6 h 14 v 6 c 0,2.757 -2.243,5 -5,5 z M 5,12 v 4 c 0,1.654 1.346,3 3,3 h 4 c 1.654,0 3,-1.346 3,-3 v -4 z"
   id="path1"
   style="fill:url(#linearGradient2)" />
</g><g
         id="g2"
         style="fill:url(#linearGradient71)">
	<path
   d="M 16.38,18.515 15.62,16.665 18.936,15.303 18.981,13 H 16 v -2 h 5 v 4.279 c 0,0.862 -0.55,1.625 -1.368,1.897 z"
   id="path2"
   style="fill:url(#linearGradient3)" />
</g><g
         id="g3"
         style="fill:url(#linearGradient70)">
	<path
   d="M 9.895,8.447 8.105,7.553 8.658,6.448 c 0.14,-0.28 0.14,-0.614 0,-0.895 L 8.553,5.342 c -0.42,-0.84 -0.42,-1.844 0,-2.684 l 0.553,-1.105 1.789,0.895 -0.553,1.105 c -0.14,0.28 -0.14,0.614 0,0.895 l 0.105,0.211 c 0.42,0.84 0.42,1.844 0,2.684 z"
   id="path3"
   style="fill:url(#linearGradient4)" />
</g><g
         id="g4"
         style="fill:url(#linearGradient69)">
	<path
   d="M 13.895,8.447 12.106,7.552 12.659,6.447 c 0.14,-0.28 0.14,-0.614 0,-0.895 L 12.554,5.341 c -0.42,-0.84 -0.42,-1.844 0,-2.684 l 0.553,-1.105 1.789,0.895 -0.553,1.105 c -0.14,0.28 -0.14,0.614 0,0.895 l 0.105,0.211 c 0.42,0.84 0.42,1.844 0,2.684 z"
   id="path4"
   style="fill:url(#linearGradient5)" />
</g><g
         id="g5"
         style="fill:url(#linearGradient68)">
	<path
   d="M 5.895,8.447 4.105,7.553 4.658,6.448 c 0.14,-0.28 0.14,-0.614 0,-0.895 L 4.553,5.342 c -0.42,-0.84 -0.42,-1.844 0,-2.684 L 5.106,1.553 6.895,2.448 6.342,3.553 c -0.14,0.28 -0.14,0.614 0,0.895 l 0.105,0.211 c 0.42,0.84 0.42,1.844 0,2.684 z"
   id="path5"
   style="fill:url(#linearGradient8)" />
</g></g></g></svg>
